<svg xmlns="http://www.w3.org/2000/svg" xmlns:xlink="http://www.w3.org/1999/xlink" width="300" zoomAndPan="magnify" viewBox="0 0 224.87999 60" height="80" preserveAspectRatio="xMidYMid meet" version="1.0"><defs><g/><clipPath id="b61d289a4b"><path d="M 3.660156 45 L 43 45 L 43 55.957031 L 3.660156 55.957031 Z M 3.660156 45 " clip-rule="nonzero"/></clipPath><clipPath id="1dbae59bf3"><path d="M 3.660156 45 L 43 45 L 43 48 L 3.660156 48 Z M 3.660156 45 " clip-rule="nonzero"/></clipPath><clipPath id="7144e3bae2"><path d="M 40 45 L 50 45 L 50 55.957031 L 40 55.957031 Z M 40 45 " clip-rule="nonzero"/></clipPath><clipPath id="556677c7b8"><path d="M 3.660156 24 L 43 24 L 43 36 L 3.660156 36 Z M 3.660156 24 " clip-rule="nonzero"/></clipPath><clipPath id="65600d9993"><path d="M 3.660156 24 L 43 24 L 43 28 L 3.660156 28 Z M 3.660156 24 " clip-rule="nonzero"/></clipPath><clipPath id="7e7d350297"><path d="M 42 14 L 51.632812 14 L 51.632812 25 L 42 25 Z M 42 14 " clip-rule="nonzero"/></clipPath><clipPath id="08c2963d9d"><path d="M 3.660156 4.234375 L 43 4.234375 L 43 15 L 3.660156 15 Z M 3.660156 4.234375 " clip-rule="nonzero"/></clipPath><clipPath id="48ae54fd61"><path d="M 3.660156 4.234375 L 43 4.234375 L 43 7 L 3.660156 7 Z M 3.660156 4.234375 " clip-rule="nonzero"/></clipPath><clipPath id="ff00264634"><path d="M 40 4.234375 L 50 4.234375 L 50 15 L 40 15 Z M 40 4.234375 " clip-rule="nonzero"/></clipPath></defs><path fill="#b1dee3" d="M 47.652344 54.789062 L 42.363281 54.789062 L 42.363281 47.105469 L 47.652344 47.105469 L 47.652344 54.789062 " fill-opacity="1" fill-rule="nonzero"/><g clip-path="url(#b61d289a4b)"><path fill="#51abe3" d="M 42.3125 45.628906 L 5.355469 45.628906 C 4.4375 45.628906 3.6875 46.386719 3.6875 47.304688 L 3.6875 54.292969 C 3.6875 55.214844 4.4375 55.96875 5.355469 55.96875 L 42.3125 55.96875 L 42.3125 45.628906 " fill-opacity="1" fill-rule="nonzero"/></g><g clip-path="url(#1dbae59bf3)"><path fill="#4498c3" d="M 42.3125 45.628906 L 5.355469 45.628906 C 4.4375 45.628906 3.6875 46.386719 3.6875 47.304688 L 3.6875 47.796875 L 42.3125 47.796875 L 42.3125 45.628906 " fill-opacity="1" fill-rule="nonzero"/></g><g clip-path="url(#7144e3bae2)"><path fill="#3883a7" d="M 49.21875 47.351562 L 49.21875 45.628906 L 40.601562 45.628906 L 40.601562 55.96875 L 49.21875 55.96875 L 49.21875 54.292969 L 42.363281 54.34375 L 42.363281 47.351562 L 49.21875 47.351562 " fill-opacity="1" fill-rule="nonzero"/></g><path fill="#ffffff" d="M 11.621094 54.539062 L 7.898438 54.539062 L 7.898438 47.058594 L 11.621094 47.058594 L 11.621094 54.539062 " fill-opacity="1" fill-rule="nonzero"/><path fill="#b1dee3" d="M 48.679688 44.449219 L 43.390625 44.449219 L 43.390625 36.769531 L 48.679688 36.769531 L 48.679688 44.449219 " fill-opacity="1" fill-rule="nonzero"/><path fill="#df2a24" d="M 43.34375 35.292969 L 6.382812 35.292969 C 5.46875 35.292969 4.71875 36.046875 4.71875 36.96875 L 4.71875 43.953125 C 4.71875 44.878906 5.46875 45.628906 6.382812 45.628906 L 43.34375 45.628906 L 43.34375 35.292969 " fill-opacity="1" fill-rule="nonzero"/><path fill="#c72525" d="M 43.34375 35.292969 L 6.382812 35.292969 C 5.46875 35.292969 4.71875 36.046875 4.71875 36.96875 L 4.71875 37.457031 L 43.34375 37.457031 L 43.34375 35.292969 " fill-opacity="1" fill-rule="nonzero"/><path fill="#c72525" d="M 50.25 37.015625 L 50.25 35.292969 L 41.632812 35.292969 L 41.632812 45.628906 L 50.25 45.628906 L 50.25 43.957031 L 43.390625 44.003906 L 43.390625 37.015625 L 50.25 37.015625 " fill-opacity="1" fill-rule="nonzero"/><path fill="#ffffff" d="M 12.648438 44.203125 L 8.925781 44.203125 L 8.925781 36.71875 L 12.648438 36.71875 L 12.648438 44.203125 " fill-opacity="1" fill-rule="nonzero"/><path fill="#b1dee3" d="M 47.652344 34.113281 L 42.363281 34.113281 L 42.363281 26.429688 L 47.652344 26.429688 L 47.652344 34.113281 " fill-opacity="1" fill-rule="nonzero"/><g clip-path="url(#556677c7b8)"><path fill="#7ecb29" d="M 42.3125 24.953125 L 5.355469 24.953125 C 4.4375 24.953125 3.6875 25.707031 3.6875 26.628906 L 3.6875 33.617188 C 3.6875 34.539062 4.4375 35.292969 5.355469 35.292969 L 42.3125 35.292969 L 42.3125 24.953125 " fill-opacity="1" fill-rule="nonzero"/></g><g clip-path="url(#65600d9993)"><path fill="#6c9c2c" d="M 42.3125 24.953125 L 5.355469 24.953125 C 4.4375 24.953125 3.6875 25.707031 3.6875 26.628906 L 3.6875 27.121094 L 42.3125 27.121094 L 42.3125 24.953125 " fill-opacity="1" fill-rule="nonzero"/></g><path fill="#6c9c2c" d="M 49.21875 26.675781 L 49.21875 24.953125 L 40.601562 24.953125 L 40.601562 35.292969 L 49.21875 35.292969 L 49.21875 33.617188 L 42.363281 33.667969 L 42.363281 26.675781 L 49.21875 26.675781 " fill-opacity="1" fill-rule="nonzero"/><path fill="#ffffff" d="M 11.621094 33.863281 L 7.898438 33.863281 L 7.898438 26.382812 L 11.621094 26.382812 L 11.621094 33.863281 " fill-opacity="1" fill-rule="nonzero"/><path fill="#b1dee3" d="M 50.035156 23.773438 L 44.75 23.773438 L 44.75 16.09375 L 50.035156 16.09375 L 50.035156 23.773438 " fill-opacity="1" fill-rule="nonzero"/><path fill="#f48517" d="M 44.699219 14.617188 L 7.738281 14.617188 C 6.824219 14.617188 6.074219 15.371094 6.074219 16.289062 L 6.074219 23.28125 C 6.074219 24.199219 6.824219 24.953125 7.738281 24.953125 L 44.699219 24.953125 L 44.699219 14.617188 " fill-opacity="1" fill-rule="nonzero"/><path fill="#cb701b" d="M 44.699219 14.617188 L 7.738281 14.617188 C 6.824219 14.617188 6.074219 15.371094 6.074219 16.289062 L 6.074219 16.78125 L 44.699219 16.78125 L 44.699219 14.617188 " fill-opacity="1" fill-rule="nonzero"/><g clip-path="url(#7e7d350297)"><path fill="#cb701b" d="M 51.601562 16.339844 L 51.601562 14.617188 L 42.984375 14.617188 L 42.984375 24.953125 L 51.601562 24.953125 L 51.601562 23.28125 L 44.75 23.332031 L 44.75 16.339844 L 51.601562 16.339844 " fill-opacity="1" fill-rule="nonzero"/></g><path fill="#ffffff" d="M 14.003906 23.527344 L 10.285156 23.527344 L 10.285156 16.042969 L 14.003906 16.042969 L 14.003906 23.527344 " fill-opacity="1" fill-rule="nonzero"/><path fill="#b1dee3" d="M 47.652344 13.394531 L 42.363281 13.394531 L 42.363281 5.714844 L 47.652344 5.714844 L 47.652344 13.394531 " fill-opacity="1" fill-rule="nonzero"/><g clip-path="url(#08c2963d9d)"><path fill="#212e45" d="M 42.3125 4.238281 L 5.355469 4.238281 C 4.4375 4.238281 3.6875 4.992188 3.6875 5.914062 L 3.6875 12.902344 C 3.6875 13.824219 4.4375 14.578125 5.355469 14.578125 L 42.3125 14.578125 L 42.3125 4.238281 " fill-opacity="1" fill-rule="nonzero"/></g><g clip-path="url(#48ae54fd61)"><path fill="#131c29" d="M 42.3125 4.238281 L 5.355469 4.238281 C 4.4375 4.238281 3.6875 4.992188 3.6875 5.914062 L 3.6875 6.40625 L 42.3125 6.40625 L 42.3125 4.238281 " fill-opacity="1" fill-rule="nonzero"/></g><g clip-path="url(#ff00264634)"><path fill="#131c29" d="M 49.21875 5.960938 L 49.21875 4.238281 L 40.601562 4.238281 L 40.601562 14.578125 L 49.21875 14.578125 L 49.21875 12.902344 L 42.363281 12.953125 L 42.363281 5.960938 L 49.21875 5.960938 " fill-opacity="1" fill-rule="nonzero"/></g><path fill="#ffffff" d="M 11.621094 13.148438 L 7.898438 13.148438 L 7.898438 5.667969 L 11.621094 5.667969 L 11.621094 13.148438 " fill-opacity="1" fill-rule="nonzero"/><g fill="#00bf63" fill-opacity="1"><g transform="translate(58.798626, 25.62916)"><g><path d="M 17.953125 0 L 17 -11.828125 L 16.890625 -11.828125 L 12.796875 -0.125 L 10.09375 -0.125 L 6 -11.828125 L 5.875 -11.828125 L 4.9375 0 L 0.390625 0 L 2.171875 -19.953125 L 7.015625 -19.953125 L 11.4375 -8.4375 L 15.859375 -19.953125 L 20.703125 -19.953125 L 22.5 0 Z M 17.953125 0 "/></g></g></g><g fill="#00bf63" fill-opacity="1"><g transform="translate(83.184649, 25.62916)"><g><path d="M 6 -19.953125 L 6 0 L 1.453125 0 L 1.453125 -19.953125 Z M 6 -19.953125 "/></g></g></g><g fill="#00bf63" fill-opacity="1"><g transform="translate(92.136126, 25.62916)"><g><path d="M 6 -12.390625 L 6 0 L 1.453125 0 L 1.453125 -19.953125 L 6 -19.953125 L 13.9375 -7.578125 L 13.984375 -7.578125 L 13.984375 -19.953125 L 18.53125 -19.953125 L 18.53125 0 L 13.984375 0 L 6.046875 -12.390625 Z M 6 -12.390625 "/></g></g></g><g fill="#00bf63" fill-opacity="1"><g transform="translate(113.619101, 25.62916)"><g><path d="M 6 -8 L 6 0 L 1.453125 0 L 1.453125 -19.953125 L 6 -19.953125 L 6 -12 L 12.4375 -12 L 12.4375 -19.953125 L 16.984375 -19.953125 L 16.984375 0 L 12.4375 0 L 12.4375 -8 Z M 6 -8 "/></g></g></g><g fill="#00bf63" fill-opacity="1"><g transform="translate(133.553782, 25.62916)"><g><path d="M 11.578125 -19.953125 L 19.640625 0 L 14.75 0 L 13.28125 -3.984375 L 5.6875 -3.984375 L 4.203125 0 L -0.671875 0 L 7.375 -19.953125 Z M 11.734375 -7.984375 L 9.5 -13.78125 L 9.453125 -13.78125 L 7.234375 -7.984375 Z M 11.734375 -7.984375 "/></g></g></g><g fill="#00bf63" fill-opacity="1"><g transform="translate(58.798626, 50.799856)"><g><path d="M 1.453125 -19.953125 L 7.640625 -19.953125 C 9.515625 -19.953125 11.003906 -19.550781 12.109375 -18.75 C 13.222656 -17.957031 13.78125 -16.664062 13.78125 -14.875 C 13.78125 -12.875 12.953125 -11.445312 11.296875 -10.59375 C 14.128906 -10.09375 15.546875 -8.414062 15.546875 -5.5625 C 15.546875 -3.882812 14.960938 -2.535156 13.796875 -1.515625 C 12.640625 -0.503906 11.046875 0 9.015625 0 L 1.453125 0 Z M 6 -12.140625 L 6.359375 -12.140625 C 7.378906 -12.140625 8.140625 -12.316406 8.640625 -12.671875 C 9.140625 -13.023438 9.390625 -13.609375 9.390625 -14.421875 C 9.390625 -15.773438 8.378906 -16.453125 6.359375 -16.453125 L 6 -16.453125 Z M 6 -3.5 L 7.421875 -3.5 C 9.648438 -3.5 10.765625 -4.242188 10.765625 -5.734375 C 10.765625 -6.617188 10.484375 -7.253906 9.921875 -7.640625 C 9.367188 -8.023438 8.535156 -8.21875 7.421875 -8.21875 L 6 -8.21875 Z M 6 -3.5 "/></g></g></g><g fill="#00bf63" fill-opacity="1"><g transform="translate(76.410873, 50.799856)"><g><path d="M 6 -19.953125 L 6 0 L 1.453125 0 L 1.453125 -19.953125 Z M 6 -19.953125 "/></g></g></g><g fill="#00bf63" fill-opacity="1"><g transform="translate(85.36235, 50.799856)"><g><path d="M 1.453125 -19.953125 L 7.640625 -19.953125 C 9.515625 -19.953125 11.003906 -19.550781 12.109375 -18.75 C 13.222656 -17.957031 13.78125 -16.664062 13.78125 -14.875 C 13.78125 -12.875 12.953125 -11.445312 11.296875 -10.59375 C 14.128906 -10.09375 15.546875 -8.414062 15.546875 -5.5625 C 15.546875 -3.882812 14.960938 -2.535156 13.796875 -1.515625 C 12.640625 -0.503906 11.046875 0 9.015625 0 L 1.453125 0 Z M 6 -12.140625 L 6.359375 -12.140625 C 7.378906 -12.140625 8.140625 -12.316406 8.640625 -12.671875 C 9.140625 -13.023438 9.390625 -13.609375 9.390625 -14.421875 C 9.390625 -15.773438 8.378906 -16.453125 6.359375 -16.453125 L 6 -16.453125 Z M 6 -3.5 L 7.421875 -3.5 C 9.648438 -3.5 10.765625 -4.242188 10.765625 -5.734375 C 10.765625 -6.617188 10.484375 -7.253906 9.921875 -7.640625 C 9.367188 -8.023438 8.535156 -8.21875 7.421875 -8.21875 L 6 -8.21875 Z M 6 -3.5 "/></g></g></g><g fill="#00bf63" fill-opacity="1"><g transform="translate(102.974597, 50.799856)"><g><path d="M 6 -19.953125 L 6 -3.984375 L 12.875 -3.984375 L 12.875 0 L 1.453125 0 L 1.453125 -19.953125 Z M 6 -19.953125 "/></g></g></g><g fill="#00bf63" fill-opacity="1"><g transform="translate(118.143443, 50.799856)"><g><path d="M 6 -19.953125 L 6 0 L 1.453125 0 L 1.453125 -19.953125 Z M 6 -19.953125 "/></g></g></g><g fill="#00bf63" fill-opacity="1"><g transform="translate(127.094921, 50.799856)"><g><path d="M 0.5625 -9.984375 C 0.5625 -12.867188 1.539062 -15.3125 3.5 -17.3125 C 5.46875 -19.3125 7.84375 -20.3125 10.625 -20.3125 C 13.40625 -20.3125 15.769531 -19.316406 17.71875 -17.328125 C 19.675781 -15.335938 20.65625 -12.890625 20.65625 -9.984375 C 20.65625 -7.066406 19.695312 -4.613281 17.78125 -2.625 C 15.863281 -0.632812 13.476562 0.359375 10.625 0.359375 C 7.695312 0.359375 5.285156 -0.625 3.390625 -2.59375 C 1.503906 -4.570312 0.5625 -7.035156 0.5625 -9.984375 Z M 5.46875 -9.984375 C 5.46875 -8.941406 5.628906 -7.988281 5.953125 -7.125 C 6.273438 -6.257812 6.835938 -5.53125 7.640625 -4.9375 C 8.453125 -4.34375 9.445312 -4.046875 10.625 -4.046875 C 12.3125 -4.046875 13.585938 -4.625 14.453125 -5.78125 C 15.316406 -6.9375 15.75 -8.335938 15.75 -9.984375 C 15.75 -11.617188 15.304688 -13.019531 14.421875 -14.1875 C 13.546875 -15.351562 12.28125 -15.9375 10.625 -15.9375 C 8.976562 -15.9375 7.707031 -15.351562 6.8125 -14.1875 C 5.914062 -13.019531 5.46875 -11.617188 5.46875 -9.984375 Z M 5.46875 -9.984375 "/></g></g></g><g fill="#00bf63" fill-opacity="1"><g transform="translate(149.811694, 50.799856)"><g><path d="M 0.1875 -15.96875 L 0.1875 -19.953125 L 14.21875 -19.953125 L 14.21875 -15.96875 L 9.484375 -15.96875 L 9.484375 0 L 4.9375 0 L 4.9375 -15.96875 Z M 0.1875 -15.96875 "/></g></g></g><g fill="#00bf63" fill-opacity="1"><g transform="translate(165.730494, 50.799856)"><g><path d="M 12.875 -19.953125 L 12.875 -15.96875 L 6 -15.96875 L 6 -12 L 12.578125 -12 L 12.578125 -8 L 6 -8 L 6 -3.984375 L 12.875 -3.984375 L 12.875 0 L 1.453125 0 L 1.453125 -19.953125 Z M 12.875 -19.953125 "/></g></g></g><g fill="#00bf63" fill-opacity="1"><g transform="translate(181.262219, 50.799856)"><g><path d="M 12.0625 -4.109375 C 12.757812 -4.109375 13.429688 -4.210938 14.078125 -4.421875 C 14.734375 -4.628906 15.21875 -4.832031 15.53125 -5.03125 L 15.984375 -5.34375 L 17.921875 -1.46875 C 17.859375 -1.425781 17.769531 -1.363281 17.65625 -1.28125 C 17.539062 -1.195312 17.273438 -1.046875 16.859375 -0.828125 C 16.453125 -0.617188 16.015625 -0.429688 15.546875 -0.265625 C 15.078125 -0.109375 14.460938 0.03125 13.703125 0.15625 C 12.953125 0.289062 12.175781 0.359375 11.375 0.359375 C 9.519531 0.359375 7.757812 -0.09375 6.09375 -1 C 4.4375 -1.914062 3.097656 -3.171875 2.078125 -4.765625 C 1.066406 -6.359375 0.5625 -8.082031 0.5625 -9.9375 C 0.5625 -11.34375 0.859375 -12.691406 1.453125 -13.984375 C 2.046875 -15.273438 2.835938 -16.378906 3.828125 -17.296875 C 4.828125 -18.210938 5.984375 -18.941406 7.296875 -19.484375 C 8.617188 -20.035156 9.976562 -20.3125 11.375 -20.3125 C 12.65625 -20.3125 13.835938 -20.15625 14.921875 -19.84375 C 16.015625 -19.539062 16.789062 -19.238281 17.25 -18.9375 L 17.921875 -18.484375 L 15.984375 -14.609375 C 15.867188 -14.703125 15.695312 -14.816406 15.46875 -14.953125 C 15.25 -15.097656 14.800781 -15.28125 14.125 -15.5 C 13.445312 -15.726562 12.757812 -15.84375 12.0625 -15.84375 C 10.96875 -15.84375 9.984375 -15.664062 9.109375 -15.3125 C 8.242188 -14.957031 7.554688 -14.488281 7.046875 -13.90625 C 6.535156 -13.320312 6.144531 -12.695312 5.875 -12.03125 C 5.613281 -11.363281 5.484375 -10.679688 5.484375 -9.984375 C 5.484375 -8.472656 6.050781 -7.113281 7.1875 -5.90625 C 8.332031 -4.707031 9.957031 -4.109375 12.0625 -4.109375 Z M 12.0625 -4.109375 "/></g></g></g><g fill="#00bf63" fill-opacity="1"><g transform="translate(200.979175, 50.799856)"><g><path d="M 11.578125 -19.953125 L 19.640625 0 L 14.75 0 L 13.28125 -3.984375 L 5.6875 -3.984375 L 4.203125 0 L -0.671875 0 L 7.375 -19.953125 Z M 11.734375 -7.984375 L 9.5 -13.78125 L 9.453125 -13.78125 L 7.234375 -7.984375 Z M 11.734375 -7.984375 "/></g></g></g></svg>